<?xml version="1.0" standalone="no"?>
<!DOCTYPE svg PUBLIC "-//W3C//DTD SVG 20010904//EN"
 "http://www.w3.org/TR/2001/REC-SVG-20010904/DTD/svg10.dtd">
<svg version="1.0" xmlns="http://www.w3.org/2000/svg"
 width="980.000000pt" height="980.000000pt" viewBox="0 0 980.000000 980.000000"
 preserveAspectRatio="xMidYMid meet">
<metadata>
Created by potrace 1.14, written by Peter Selinger 2001-2017
</metadata>
<g transform="translate(0.000000,980.000000) scale(0.100000,-0.100000)"
fill="#000000" stroke="none">
<path d="M4475 9329 c-242 -7 -366 -21 -635 -70 -1689 -307 -2985 -1282 -3349
-2519 -102 -346 -135 -754 -72 -878 24 -48 101 -117 139 -126 96 -22 943 -27
4516 -23 2695 3 3862 8 3961 15 240 20 263 29 305 124 76 172 28 610 -110
1011 -156 453 -423 841 -860 1250 -429 401 -958 711 -1575 923 -376 130 -880
244 -1202 274 -100 9 -785 32 -858 28 -16 -1 -133 -5 -260 -9z m740 -589 c860
-62 1597 -285 2230 -675 225 -139 384 -265 604 -479 236 -231 368 -410 501
-681 114 -234 179 -415 195 -549 l7 -56 -3871 0 c-2129 0 -3871 2 -3871 4 0 2
10 50 21 107 62 303 245 662 493 969 600 742 1749 1268 2966 1359 165 12 561
13 725 1z"/>
<path d="M2907 7766 c-90 -33 -147 -100 -154 -185 -8 -88 3 -127 50 -178 62
-67 105 -86 192 -81 60 3 79 8 115 33 75 52 94 87 99 177 4 97 -7 125 -70 182
-69 62 -151 80 -232 52z"/>
<path d="M6767 7766 c-118 -43 -172 -139 -153 -271 9 -55 66 -124 130 -157 60
-31 168 -23 226 17 75 52 94 87 99 177 4 97 -7 125 -70 182 -69 62 -151 80
-232 52z"/>
<path d="M4809 7541 c-61 -34 -117 -103 -125 -156 -17 -114 15 -189 104 -246
91 -58 198 -48 281 27 63 57 74 85 70 182 -5 90 -24 125 -100 177 -36 26 -53
30 -118 33 -60 2 -84 -2 -112 -17z"/>
<path d="M1365 5524 c-240 -26 -488 -120 -677 -254 -94 -67 -255 -226 -284
-281 -25 -48 -24 -159 3 -220 31 -69 84 -122 154 -154 52 -23 71 -27 133 -23
89 4 151 33 261 123 92 75 264 164 370 192 96 25 313 25 405 0 144 -39 245
-91 362 -187 40 -33 121 -99 179 -148 220 -180 442 -281 714 -323 119 -19 390
-16 504 5 257 47 482 159 709 352 206 174 316 245 447 288 195 63 419 47 612
-44 99 -46 171 -96 308 -214 335 -289 678 -418 1065 -403 363 15 653 132 955
386 272 229 446 300 700 288 191 -9 313 -57 512 -200 175 -124 192 -132 288
-131 66 0 89 5 131 26 103 54 158 148 159 268 0 62 -5 85 -28 132 -86 176
-523 434 -827 489 -96 17 -449 18 -547 1 -226 -38 -511 -179 -708 -349 -186
-159 -359 -262 -480 -284 -36 -7 -133 -9 -240 -7 -170 4 -184 6 -250 33 -124
50 -221 115 -400 265 -234 196 -430 296 -690 352 -129 28 -408 35 -535 14
-296 -48 -539 -168 -790 -387 -167 -145 -319 -233 -460 -264 -114 -26 -288
-31 -389 -12 -148 29 -238 79 -471 266 -85 69 -189 147 -230 174 -149 97 -346
176 -530 212 -83 16 -353 28 -435 19z"/>
<path d="M485 3990 c-148 -4 -287 -10 -308 -15 -50 -10 -138 -94 -158 -150
-12 -33 -14 -168 -14 -770 l0 -730 27 -47 c57 -96 148 -148 262 -148 100 0
102 -3 153 -180 119 -414 256 -659 510 -914 235 -236 496 -392 861 -513 l197
-66 2755 7 c1595 3 2818 10 2905 16 171 11 257 30 425 97 482 189 860 536
1080 988 72 148 101 229 149 415 l38 145 129 5 c145 6 149 7 242 89 l63 55 -3
761 c-4 878 3 816 -101 910 l-60 55 -4441 -2 c-2443 -1 -4562 -5 -4711 -8z
m8732 -762 c-4 -99 -7 -252 -7 -340 l0 -158 -4310 0 -4310 0 0 330 c0 182 3
331 8 331 66 12 1135 16 4541 17 l4084 2 -6 -182z m-615 -1117 l147 -6 -20
-60 c-11 -33 -52 -124 -90 -203 -144 -293 -320 -474 -614 -633 -143 -78 -192
-97 -291 -114 -197 -33 -402 -37 -2399 -42 -2129 -5 -3137 4 -3255 31 -151 33
-347 119 -488 212 -107 72 -255 214 -338 323 -100 133 -199 346 -219 470 l-7
44 3713 -7 c2043 -5 3780 -11 3861 -15z"/>
</g>
</svg>
